<?xml version="1.0" standalone="no"?>
<!DOCTYPE svg PUBLIC "-//W3C//DTD SVG 20010904//EN"
 "http://www.w3.org/TR/2001/REC-SVG-20010904/DTD/svg10.dtd">
<svg version="1.0" xmlns="http://www.w3.org/2000/svg"
 width="512.000000pt" height="512.000000pt" viewBox="0 0 512.000000 512.000000"
 preserveAspectRatio="xMidYMid meet">
<metadata>
Created by potrace 1.14, written by Peter Selinger 2001-2017
</metadata>
<g transform="translate(0.000000,512.000000) scale(0.100000,-0.100000)"
fill="#000000" stroke="none">
<path d="M2325 4630 c-237 -25 -542 -110 -756 -212 -702 -334 -1201 -1008
-1303 -1760 -44 -319 -37 -337 122 -338 l92 0 0 -360 0 -360 -55 0 c-46 0 -60
-4 -80 -25 l-25 -24 0 -456 0 -455 -135 0 c-131 0 -137 -1 -160 -25 -33 -32
-33 -78 0 -110 l24 -25 2511 0 2511 0 24 25 c33 32 33 78 0 110 -23 24 -29 25
-160 25 l-135 0 0 455 0 456 -25 24 -24 25 -456 0 -455 0 0 200 0 200 400 0
400 0 0 80 0 80 -400 0 -400 0 0 103 c0 56 -5 167 -10 247 -51 749 -273 1371
-619 1733 -35 37 -62 67 -60 67 3 0 45 -13 93 -30 l87 -29 19 44 c74 172 66
189 -115 243 -223 67 -377 91 -635 96 -102 3 -225 1 -275 -4z m351 -241 c84
-15 226 -86 314 -156 399 -318 663 -1036 687 -1865 l6 -208 -562 0 -561 0 0
1120 0 1120 28 0 c16 0 55 -5 88 -11z m1004 -2589 l0 -200 -560 0 -560 0 0
200 0 200 560 0 560 0 0 -200z"/>
<path d="M3946 4040 l-91 -89 55 -48 c30 -26 85 -76 121 -112 36 -36 86 -91
112 -121 l48 -55 89 91 c126 128 127 122 -43 292 -169 169 -163 168 -291 42z"/>
</g>
</svg>
